<?xml version="1.0" encoding="UTF-8" standalone="no"?>
<!-- Created with Inkscape (http://www.inkscape.org/) -->

<svg
   version="1.1"
   id="svg1"
   width="512"
   height="512"
   viewBox="0 0 512 512"
   xmlns="http://www.w3.org/2000/svg"
   xmlns:svg="http://www.w3.org/2000/svg">
  <defs
     id="defs1" />
  <g
     id="g1">
    <g
       id="g3701">
      <path
         style="fill:#f2841e"
         d="m 135.73447,229.91195 c -24.68269,-5.81517 -17.8275,-22.1219 14.26553,-33.934 l 7.5,-2.76044 0.77649,-10.35876 c 4.13855,-55.21001 12.86888,-67.99046 40.65501,-59.51541 11.26499,3.43593 19.98487,1.07105 32.5685,-8.83275 23.07695,-18.162457 37.80283,-13.09784 56.40304,19.3985 7.28587,12.72912 7.36175,13.36878 1.84696,15.57057 -8.67933,3.46522 -37.91357,22.73992 -40.268,26.54946 -1.15606,1.87056 2.16703,0.94531 6.57222,-1.8299 45.03169,-28.36937 85.5584,-34.71445 82.63759,-12.93818 -1.07228,7.99446 -8.86915,13.02766 -22.69181,14.6485 -21.70318,2.54492 -34.94444,7.21317 -73.85882,26.03922 -50.62331,24.49059 -83.9605,33.25145 -106.40671,27.96319 z"
         id="path3702" />
      <path
         style="fill:#1f3452"
         d="M 240.07836,404.85838 C 234.89842,400.03253 235,401.74925 235,319.03212 235,243.33333 234.96538,241.96538 233,240 c -1.90303,-1.90303 -3.33333,-2 -29.5,-2 -27.17683,0 -32.49762,-0.68163 -23.25,-2.9785 18.11508,-4.49931 34.85965,-11.21924 66.7721,-26.79696 47.38504,-23.13051 55.95017,-25.20207 104.26002,-25.21634 39.27643,-0.0116 44.52729,3.79335 36.68617,26.58398 -7.98227,23.20087 -19.5405,28.39185 -63.32363,28.43962 -31.37968,0.0342 -31.59153,0.0681 -33.60535,5.36479 C 290.36304,245.17533 290,266.65314 290,304.8836 c 0,64.51547 0.12709,62.9748 -6.2349,75.58049 -9.12527,18.08084 -34.97192,32.51338 -43.68674,24.39429 z"
         id="path3701" />
    </g>
  </g>
</svg>
